<?xml version="1.0" encoding="UTF-8" standalone="no"?>
<!-- Created with Inkscape (http://www.inkscape.org/) -->

<svg
   width="66.410416mm"
   height="66.675003mm"
   viewBox="0 0 66.410416 66.675003"
   version="1.1"
   id="svg5"
   inkscape:version="1.1.1 (3bf5ae0d25, 2021-09-20)"
   sodipodi:docname="drawing.svg"
   xmlns:inkscape="http://www.inkscape.org/namespaces/inkscape"
   xmlns:sodipodi="http://sodipodi.sourceforge.net/DTD/sodipodi-0.dtd"
   xmlns="http://www.w3.org/2000/svg"
   xmlns:svg="http://www.w3.org/2000/svg">
  <sodipodi:namedview
     id="namedview7"
     pagecolor="#ffffff"
     bordercolor="#666666"
     borderopacity="1.0"
     inkscape:pageshadow="2"
     inkscape:pageopacity="0.0"
     inkscape:pagecheckerboard="0"
     inkscape:document-units="mm"
     showgrid="false"
     inkscape:zoom="0.93274721"
     inkscape:cx="-114.17885"
     inkscape:cy="158.67107"
     inkscape:window-width="1301"
     inkscape:window-height="744"
     inkscape:window-x="65"
     inkscape:window-y="24"
     inkscape:window-maximized="1"
     inkscape:current-layer="layer1" />
  <defs
     id="defs2" />
  <g
     inkscape:label="Layer 1"
     inkscape:groupmode="layer"
     id="layer1"
     transform="translate(-76.31416,-71.11518)">
    <g
       id="g883"
       transform="translate(0.11750884)">
      <g
         id="g53448"
         style="stroke:none;stroke-opacity:1"
         transform="translate(-6.7017067,620.52668)">
        <path
           id="path13189"
           style="fill:#034b49;fill-opacity:1;stroke:none;stroke-width:0.999999;stroke-opacity:1"
           d="m 542.07812,-1992.3613 c -0.57191,-0.01 -2.62418,0.4513 -4.96093,1.1269 l -4.85742,1.4043 -7.46875,18.0156 c -5.83261,14.0653 -8.10398,18.4642 -10.35938,20.0665 -4.60286,3.27 -7.84292,1.4996 -12.80469,-6.9961 -2.25513,-3.8614 -4.94656,-7.2408 -5.98242,-7.5118 -2.72171,-0.7117 -2.34561,-1.5053 1.78711,-3.7597 9.59142,-5.2323 10.12901,-15.3572 1.07031,-20.1856 -2.72885,-1.4552 -5.60498,-1.6864 -18.21484,-1.4668 -14.15849,0.2466 -16.4486,0.701 -16.51172,3.2774 -0.008,0.3437 1.3363,0.8946 2.98633,1.2246 l 3,0.5996 v 16.3516 c 0,16.1477 -0.031,16.3797 -2.5,18.6992 -1.37499,1.2917 -2.5,2.9447 -2.5,3.6738 0,1.9961 20.56463,1.9022 21.33203,-0.098 0.35664,-0.9293 -0.47544,-1.7782 -2.39453,-2.4472 l -2.9375,-1.0254 v -17.4844 c 0,-16.8094 0.0782,-17.5103 2.07031,-18.1426 5.41395,-1.7183 10.92969,2.6767 10.92969,8.711 0,4.463 -2.76139,7.8125 -6.44141,7.8125 -3.08031,0 -4.12864,1.6127 -2.39648,3.6894 0.73485,0.881 3.63696,5.6977 6.44726,10.7051 l 5.10938,9.1055 h 16.875 c 14.76998,0 16.91581,-0.2036 17.18945,-1.6231 0.21128,-1.0958 -1.00082,-2.1457 -3.73633,-3.2402 -2.22674,-0.891 -4.04687,-1.8631 -4.04687,-2.1602 0,-0.2971 0.65031,-2.1024 1.44726,-4.0097 l 1.44922,-3.4668 h 9.33594 9.33594 l 1.62695,4.3906 1.62695,4.3887 -3.4121,1.8379 c -6.41779,3.4562 -4.50326,4.4763 7.82617,4.166 9.04713,-0.2276 11.29181,-0.5757 11.51367,-1.7832 0.15152,-0.825 -0.96835,-2.2114 -2.48828,-3.0801 -2.2698,-1.2973 -4.17082,-5.0491 -10.64844,-21 -4.33765,-10.6813 -8.0028,-19.5593 -8.14453,-19.7305 -0.0177,-0.021 -0.0706,-0.034 -0.15235,-0.035 z m -7.12109,8.4394 2.76172,6.4727 c 1.51865,3.5599 3.07938,7.4763 3.46875,8.7031 0.68663,2.1632 0.49494,2.2305 -6.3457,2.2305 h -7.05274 l 1.90235,-4.75 c 1.04602,-2.6125 2.65898,-6.5289 3.58398,-8.7032 z"
           transform="scale(0.26458333)" />
        <path
           id="path13231"
           style="fill:#034b49;fill-opacity:1;stroke:none;stroke-width:0.999999;stroke-opacity:1"
           d="m 439.24023,-1992.1211 c -2.71959,-0.01 -5.85322,0.1172 -9.46875,0.3535 -9.39953,0.6145 -11.5444,1.0455 -11.79687,2.3672 -0.21169,1.1081 0.64805,1.8066 2.73828,2.2246 l 3.04883,0.6094 v 16.4961 16.4941 l -3,2.2188 c -4.84403,3.5813 -3.90225,4.7115 4.25,5.0996 16.51495,0.7861 17.79291,0.7165 22.89648,-1.2227 9.7183,-3.6926 13.80444,-10.3612 10.39258,-16.959 -0.90036,-1.7411 -2.91616,-3.9432 -4.48047,-4.8945 l -2.8457,-1.7305 2.80469,-2.8027 c 3.62377,-3.6237 4.36376,-6.8006 2.57812,-11.0742 -2.13856,-5.1183 -6.44799,-7.1532 -17.11719,-7.1797 z m -1.26171,4.7227 c 0.10809,4e-4 0.21683,0 0.32421,0.01 0.10739,0.01 0.21374,0.013 0.32032,0.023 0.10658,0.01 0.21267,0.022 0.31836,0.037 0.10569,0.015 0.21169,0.032 0.3164,0.051 0.10472,0.019 0.20885,0.041 0.3125,0.064 0.10365,0.024 0.20609,0.05 0.3086,0.078 0.1025,0.028 0.20537,0.058 0.30664,0.09 0.10126,0.032 0.20084,0.067 0.30078,0.1035 0.0999,0.036 0.20029,0.073 0.29883,0.1133 0.0985,0.04 0.19595,0.083 0.29296,0.127 0.097,0.044 0.19362,0.091 0.28907,0.1386 0.0955,0.048 0.18942,0.097 0.2832,0.1485 0.0938,0.051 0.18728,0.1052 0.2793,0.1601 0.092,0.055 0.18328,0.1116 0.27343,0.17 0.0902,0.058 0.17934,0.118 0.26758,0.1797 0.0882,0.061 0.17549,0.1246 0.26172,0.1894 0.0862,0.065 0.17174,0.1313 0.25586,0.1992 0.0841,0.068 0.16612,0.1381 0.24805,0.209 0.0819,0.071 0.16254,0.1431 0.24219,0.2168 0.0797,0.074 0.15904,0.1481 0.23632,0.2246 0.0773,0.076 0.15369,0.1553 0.22852,0.2344 0.0748,0.079 0.14841,0.1586 0.2207,0.2402 0.0723,0.082 0.14323,0.1641 0.21289,0.2481 0.0697,0.084 0.13813,0.1695 0.20508,0.2558 0.067,0.086 0.13116,0.1733 0.19531,0.2617 0.0642,0.088 0.12819,0.1791 0.18946,0.2696 0.0613,0.091 0.11944,0.1809 0.17773,0.2734 0.0583,0.092 0.11665,0.1869 0.17188,0.2813 0.0552,0.094 0.10807,0.1891 0.16015,0.2851 0.0521,0.096 0.1035,0.1934 0.15235,0.291 0.0488,0.098 0.0951,0.1958 0.14062,0.295 0.0455,0.099 0.0888,0.1982 0.13086,0.2988 0.0421,0.1005 0.0825,0.2028 0.12109,0.3047 0.0386,0.1018 0.0763,0.2036 0.11133,0.3066 0.035,0.103 0.0682,0.2065 0.0996,0.3106 0.0314,0.104 0.0603,0.2094 0.0879,0.3144 0.0276,0.105 0.0544,0.2106 0.0781,0.3164 0.0238,0.1059 0.0446,0.2118 0.0645,0.3184 0.0198,0.1065 0.0389,0.2131 0.0547,0.3203 0.0158,0.1072 0.0293,0.2146 0.041,0.3223 0.0117,0.1076 0.0218,0.2161 0.0293,0.3242 0.008,0.108 0.0124,0.2159 0.0156,0.3242 0.003,0.1083 0.003,0.2157 0.002,0.3242 -10e-4,0.1085 -0.004,0.2177 -0.01,0.3262 -0.006,0.1085 -0.0133,0.2177 -0.0234,0.3262 -0.0101,0.1084 -0.0224,0.2159 -0.0371,0.3242 -0.0147,0.1083 -0.0314,0.2162 -0.0508,0.3242 -0.0195,0.108 -0.0422,0.2166 -0.0664,0.3242 -0.0243,0.1076 -0.051,0.2152 -0.0801,0.3223 -0.0291,0.1071 -0.0597,0.2138 -0.0937,0.3203 -0.0341,0.1065 -0.0702,0.2126 -0.10937,0.3184 -0.0392,0.1057 -0.0807,0.2115 -0.125,0.3164 -0.0443,0.1048 -0.093,0.2085 -0.14258,0.3125 -0.0496,0.1039 -0.10139,0.2077 -0.15625,0.3105 -0.0549,0.1029 -0.11161,0.205 -0.17188,0.3066 -0.0603,0.1017 -0.12368,0.2024 -0.18945,0.3028 -0.0863,0.1317 -0.17145,0.2564 -0.25586,0.375 -0.0844,0.1186 -0.16771,0.2317 -0.25195,0.3379 -0.0842,0.1061 -0.16812,0.2064 -0.25391,0.3008 -0.0858,0.094 -0.17461,0.1824 -0.26367,0.2656 -0.0891,0.083 -0.17938,0.1617 -0.27344,0.2344 -0.047,0.036 -0.094,0.07 -0.14258,0.1035 -0.0486,0.034 -0.098,0.068 -0.14843,0.1 -0.0504,0.031 -0.10191,0.061 -0.1543,0.09 -0.0524,0.029 -0.10555,0.057 -0.16016,0.084 -0.0546,0.027 -0.11092,0.052 -0.16797,0.076 -0.057,0.025 -0.11609,0.05 -0.17578,0.072 -0.11938,0.045 -0.24373,0.086 -0.375,0.1231 -0.13126,0.037 -0.26919,0.07 -0.41406,0.1 -0.14487,0.03 -0.29683,0.057 -0.45703,0.08 -0.1602,0.023 -0.32861,0.043 -0.50586,0.061 -0.17725,0.017 -0.36257,0.031 -0.55859,0.043 -0.19603,0.012 -0.40264,0.022 -0.61914,0.029 -0.21653,0.01 -0.4429,0.012 -0.68165,0.016 -0.23874,0 -0.48927,0.01 -0.75195,0.01 h -4.97656 v -7.3926 c 0,-0.3637 10e-4,-0.7127 0.004,-1.0449 0.003,-0.3323 0.006,-0.649 0.0117,-0.9512 0.006,-0.3022 0.0143,-0.5897 0.0234,-0.8633 0.009,-0.2736 0.0185,-0.5329 0.0312,-0.7793 0.0128,-0.2463 0.0283,-0.4786 0.0449,-0.6992 0.0166,-0.2206 0.0358,-0.4288 0.0566,-0.625 0.0208,-0.1962 0.0431,-0.3815 0.0684,-0.5547 0.0253,-0.1732 0.0521,-0.3347 0.082,-0.4863 0.03,-0.1516 0.0627,-0.2924 0.0977,-0.4238 0.035,-0.1315 0.073,-0.2526 0.11328,-0.3653 0.0201,-0.056 0.041,-0.1121 0.0625,-0.164 0.0215,-0.052 0.0435,-0.1008 0.0664,-0.1485 0.0229,-0.048 0.046,-0.093 0.0703,-0.1367 0.0243,-0.044 0.0503,-0.085 0.0762,-0.125 0.0258,-0.04 0.0527,-0.077 0.0801,-0.1133 0.0273,-0.036 0.0551,-0.071 0.084,-0.1035 0.0289,-0.033 0.0594,-0.063 0.0898,-0.092 0.0305,-0.029 0.0617,-0.056 0.0937,-0.082 0.0321,-0.026 0.0639,-0.051 0.0976,-0.074 0.0337,-0.023 0.0681,-0.044 0.10352,-0.064 0.0354,-0.02 0.0722,-0.039 0.10938,-0.057 0.0371,-0.017 0.0744,-0.032 0.11328,-0.047 0.11069,-0.043 0.22136,-0.082 0.33203,-0.1191 0.11067,-0.037 0.22147,-0.071 0.33203,-0.1016 0.11056,-0.031 0.22166,-0.06 0.33203,-0.086 0.11037,-0.026 0.21999,-0.048 0.33008,-0.068 0.11009,-0.02 0.22036,-0.036 0.33008,-0.051 0.10972,-0.015 0.21886,-0.027 0.32812,-0.037 0.10927,-0.01 0.2194,-0.017 0.32813,-0.021 0.10872,0 0.21612,-0.01 0.32422,-0.01 z m -4.2168,19.6035 5.25,0.6094 c 3.93343,0.4562 5.8123,1.2577 7.49805,3.1953 2.77096,3.1848 2.97876,8.5044 0.42187,10.8183 -1.83333,1.6592 -11.10057,2.3936 -12.50391,0.9903 -0.36657,-0.3667 -0.66601,-4.0307 -0.66601,-8.1407 z"
           transform="scale(0.26458333)" />
        <path
           id="path13179"
           style="fill:#034b49;fill-opacity:1;stroke:none;stroke-width:0.999999;stroke-opacity:1"
           d="m 390.04102,-1992.5 c -3.47588,-0.01 -7.07174,0.7727 -10.53711,2.4121 -9.54834,4.5171 -16.66919,13.622 -16.72071,21.3789 -0.0596,8.9734 4.63038,17.3735 11.82032,21.1719 2.46563,1.3026 5.73061,1.9463 10.01757,1.9766 5.28586,0.037 7.37147,-0.4941 12.35157,-3.1485 6.45849,-3.4423 11.87332,-9.5076 13.85742,-15.5195 1.56091,-4.7296 0.56393,-12.4137 -2.2793,-17.5567 -3.79871,-6.8713 -10.86283,-10.6988 -18.50976,-10.7148 z m -3.88282,6.3359 c 1.6984,-0.01 3.46956,0.4131 5.24414,1.295 4.92458,2.4473 7.11696,5.6801 8.37891,12.3535 1.46657,7.7556 -0.15725,14.0335 -4.65039,17.9785 -7.08643,6.2219 -16.74784,2.2234 -19.84766,-8.2149 -1.79242,-6.0357 -1.86444,-7.9922 -0.47851,-12.9824 1.82781,-6.5813 6.25832,-10.4134 11.35351,-10.4297 z"
           transform="scale(0.26458333)" />
        <path
           style="fill:#034b49;fill-opacity:1;stroke:none;stroke-width:0.264583;stroke-opacity:1"
           d="m 86.45734,-515.17256 c -2.629631,-1.14035 -3.996545,-4.3854 -3.048979,-7.23825 0.498573,-1.50106 2.419064,-3.45808 4.176352,-4.25579 1.270799,-0.57687 3.341111,-0.6677 5.103575,-0.22391 l 1.175496,0.296 v 1.68838 c 0,1.60211 -0.03219,1.68838 -0.630055,1.68838 -0.406286,0 -0.875094,-0.32126 -1.319996,-0.90456 -1.201055,-1.57466 -3.445978,-1.86909 -4.598241,-0.60307 -0.901102,0.99006 -1.177541,1.77884 -1.177541,3.35993 0,4.07303 2.517661,5.76519 6.097883,4.09851 1.411523,-0.6571 1.892533,-0.6638 1.892533,-0.0264 0,0.3474 -1.540581,1.691 -2.562294,2.23469 -0.817954,0.43525 -4.006262,0.36414 -5.108733,-0.11395 z"
           id="path13177" />
      </g>
    </g>
    <g
       id="g53452"
       transform="translate(-6.7017067,620.52668)">
      <path
         style="fill:#000000;fill-opacity:1;stroke-width:0.264583"
         d="m 83.015867,-539.22504 v -10.18646 h 33.205213 33.2052 v 10.18646 c 0,8.87824 -0.051,10.18646 -0.39687,10.18646 -0.34573,0 -0.39688,-1.27882 -0.39688,-9.92188 v -9.92187 H 116.22108 83.809617 v 9.92187 c 0,8.64306 -0.05115,9.92188 -0.396875,9.92188 -0.345905,0 -0.396875,-1.30822 -0.396875,-10.18646 z"
         id="path13193" />
      <path
         style="fill:#000000;fill-opacity:1;stroke-width:0.264583"
         d="m 83.015867,-492.92296 c 0,-8.87824 0.05097,-10.18646 0.396875,-10.18646 0.345723,0 0.396875,1.27882 0.396875,9.92188 v 9.92187 h 32.411463 32.41145 v -9.92187 c 0,-8.64306 0.0511,-9.92188 0.39688,-9.92188 0.3459,0 0.39687,1.30822 0.39687,10.18646 v 10.18646 h -33.2052 -33.205213 z"
         id="path131" />
    </g>
    <g
       id="g876"
       transform="translate(-0.0550245)">
      <g
         id="g58029"
         style="fill:#6fcc75;fill-opacity:1"
         transform="translate(-6.7017067,620.52668)">
        <path
           d="m 100.42767,-508.0612 v 3.49332 h -0.950844 v -3.46231 q 0,-0.82166 -0.32039,-1.2299 -0.32039,-0.40824 -0.96118,-0.40824 -0.76998,0 -1.21439,0.49092 -0.44442,0.49093 -0.44442,1.33842 v 3.27111 h -0.95601 v -8.04083 h 0.95601 v 3.15225 q 0.34107,-0.52193 0.80098,-0.78031 0.46509,-0.25838 1.0697,-0.25838 0.99736,0 1.50895,0.62011 0.511594,0.61495 0.511594,1.81384 z"
           id="path57874"
           style="font-size:10.5833px;line-height:1.25;fill:#6fcc75;fill-opacity:1;stroke-width:0.264583" />
        <path
           d="m 108.6009,-509.83886 q -0.76481,0 -1.20923,0.59944 -0.44441,0.59428 -0.44441,1.63297 0,1.0387 0.43924,1.63814 0.44442,0.59428 1.2144,0.59428 0.75964,0 1.20405,-0.59945 0.44442,-0.59944 0.44442,-1.63297 0,-1.02836 -0.44442,-1.6278 -0.44441,-0.60461 -1.20405,-0.60461 z m 0,-0.80615 q 1.24023,0 1.94819,0.80615 0.70797,0.80615 0.70797,2.23241 0,1.4211 -0.70797,2.23242 -0.70796,0.80615 -1.94819,0.80615 -1.2454,0 -1.95337,-0.80615 -0.70279,-0.81132 -0.70279,-2.23242 0,-1.42626 0.70279,-2.23241 0.70797,-0.80615 1.95337,-0.80615 z"
           id="path57876"
           style="font-size:10.5833px;line-height:1.25;fill:#6fcc75;fill-opacity:1;stroke-width:0.264583" />
        <path
           d="m 118.20666,-511.99893 v 1.6433 h 1.95853 v 0.73897 h -1.95853 v 3.14192 q 0,0.70797 0.1912,0.9095 0.19637,0.20154 0.79064,0.20154 h 0.97669 v 0.79582 h -0.97669 q -1.1007,0 -1.51928,-0.40825 -0.41858,-0.41341 -0.41858,-1.49861 v -3.14192 h -0.69763 v -0.73897 h 0.69763 v -1.6433 z"
           id="path57878"
           style="font-size:10.5833px;line-height:1.25;fill:#6fcc75;fill-opacity:1;stroke-width:0.264583" />
        <path
           d="m 130.55394,-507.84933 v 0.46509 h -4.37181 q 0.062,0.98185 0.58911,1.49861 0.53227,0.5116 1.47794,0.5116 0.54777,0 1.05936,-0.13436 0.51677,-0.13436 1.02319,-0.40308 v 0.89917 q -0.51159,0.21704 -1.04902,0.33073 -0.53744,0.11369 -1.09037,0.11369 -1.38493,0 -2.19624,-0.80615 -0.80615,-0.80615 -0.80615,-2.18074 0,-1.4211 0.7648,-2.25309 0.76998,-0.83715 2.07222,-0.83715 1.16789,0 1.84485,0.75447 0.68212,0.74931 0.68212,2.04121 z m -0.95084,-0.27905 q -0.0103,-0.78031 -0.43925,-1.2454 -0.42374,-0.46508 -1.12654,-0.46508 -0.79582,0 -1.27641,0.44958 -0.47542,0.44958 -0.54776,1.26607 z"
           id="path57880"
           style="font-size:10.5833px;line-height:1.25;fill:#6fcc75;fill-opacity:1;stroke-width:0.264583" />
        <path
           d="m 136.02091,-512.60871 h 0.95085 v 8.04083 h -0.95085 z"
           id="path57882"
           style="font-size:10.5833px;line-height:1.25;fill:#6fcc75;fill-opacity:1;stroke-width:0.264583" />
      </g>
    </g>
    <text
       xml:space="preserve"
       style="font-style:normal;font-weight:normal;font-size:10.5833px;line-height:1.25;font-family:sans-serif;fill:#000000;fill-opacity:1;stroke:none;stroke-width:0.264583"
       x="132.74332"
       y="-502.28564"
       id="text9785"><tspan
         sodipodi:role="line"
         id="tspan9783"
         style="stroke-width:0.264583"
         x="132.74332"
         y="-502.28564" /></text>
  </g>
</svg>
