<?xml version="1.0" encoding="UTF-8" standalone="no"?>
<!-- Created with Inkscape (http://www.inkscape.org/) -->

<svg
   width="66.410416mm"
   height="66.675003mm"
   viewBox="0 0 66.410416 66.675003"
   version="1.1"
   id="svg5"
   inkscape:version="1.1.1 (3bf5ae0d25, 2021-09-20)"
   sodipodi:docname="drawing.svg"
   xmlns:inkscape="http://www.inkscape.org/namespaces/inkscape"
   xmlns:sodipodi="http://sodipodi.sourceforge.net/DTD/sodipodi-0.dtd"
   xmlns="http://www.w3.org/2000/svg"
   xmlns:svg="http://www.w3.org/2000/svg">
  <sodipodi:namedview
     id="namedview7"
     pagecolor="#ffffff"
     bordercolor="#666666"
     borderopacity="1.0"
     inkscape:pageshadow="2"
     inkscape:pageopacity="0.0"
     inkscape:pagecheckerboard="0"
     inkscape:document-units="mm"
     showgrid="false"
     inkscape:zoom="1.158123"
     inkscape:cx="68.645556"
     inkscape:cy="173.55669"
     inkscape:window-width="1301"
     inkscape:window-height="744"
     inkscape:window-x="65"
     inkscape:window-y="24"
     inkscape:window-maximized="1"
     inkscape:current-layer="layer1" />
  <defs
     id="defs2" />
  <g
     inkscape:label="Layer 1"
     inkscape:groupmode="layer"
     id="layer1"
     transform="translate(-76.31416,-71.11518)">
    <text
       xml:space="preserve"
       style="font-style:normal;font-weight:normal;font-size:10.5833px;line-height:1.25;font-family:sans-serif;fill:#000000;fill-opacity:1;stroke:none;stroke-width:0.264583"
       x="132.74332"
       y="-502.28564"
       id="text9785"><tspan
         sodipodi:role="line"
         id="tspan9783"
         style="stroke-width:0.264583"
         x="132.74332"
         y="-502.28564" /></text>
    <g
       id="g35141">
      <g
         id="g134">
        <path
           id="path13189"
           style="fill:#034b49;fill-opacity:1;stroke:none;stroke-width:0.264583;stroke-opacity:1"
           d="m 136.72313,93.381093 c -0.15132,-0.0026 -0.69432,0.119406 -1.31258,0.298159 l -1.28519,0.371554 -1.97611,4.766627 c -1.54321,3.721447 -2.14418,4.885317 -2.74092,5.309257 -1.21784,0.86519 -2.07511,0.39677 -3.38791,-1.85105 -0.59667,-1.02166 -1.30878,-1.91579 -1.58285,-1.98749 -0.72012,-0.18831 -0.62061,-0.398281 0.47284,-0.994758 2.53773,-1.384379 2.67997,-4.063259 0.28319,-5.340773 -0.72201,-0.385022 -1.48299,-0.446193 -4.81934,-0.388091 -3.7461,0.06525 -4.35203,0.185473 -4.36873,0.867146 -0.002,0.09094 0.35356,0.236696 0.79013,0.324008 l 0.79375,0.158645 v 4.32636 c 0,4.272413 -0.008,4.333793 -0.66145,4.947493 -0.3638,0.34177 -0.66146,0.77912 -0.66146,0.97203 0,0.52814 5.44106,0.50329 5.6441,-0.0259 0.0944,-0.24588 -0.1258,-0.47048 -0.63356,-0.64749 l -0.77721,-0.2713 v -4.626082 c 0,-4.447487 0.0207,-4.632933 0.54777,-4.800229 1.43244,-0.454634 2.89181,0.70821 2.89181,2.304785 0,1.180835 -0.73061,2.067057 -1.70429,2.067057 -0.81499,0 -1.09237,0.426694 -0.63406,0.976159 0.19442,0.23309 0.96227,1.50751 1.70583,2.83239 l 1.35186,2.40916 h 4.46484 c 3.90789,0 4.47564,-0.0539 4.54804,-0.42945 0.0559,-0.28993 -0.2648,-0.56771 -0.98857,-0.8573 -0.58915,-0.23574 -1.07073,-0.49294 -1.07073,-0.57155 0,-0.0786 0.17206,-0.55626 0.38292,-1.0609 l 0.38344,-0.91726 h 2.47013 2.47014 l 0.43046,1.16168 0.43047,1.16118 -0.90279,0.48628 c -1.69804,0.91445 -1.19149,1.18435 2.07068,1.10225 2.39372,-0.0602 2.98762,-0.15232 3.04632,-0.47181 0.0401,-0.21828 -0.25621,-0.58509 -0.65836,-0.81494 -0.60055,-0.34324 -1.10353,-1.33591 -2.8174,-5.556248 -1.14767,-2.826094 -2.1174,-5.175065 -2.1549,-5.220362 -0.005,-0.0056 -0.0187,-0.009 -0.0403,-0.0093 z m -1.88412,2.232924 0.7307,1.712569 c 0.40181,0.94189 0.81475,1.978104 0.91777,2.302695 0.18168,0.572349 0.13096,0.590149 -1.67896,0.590149 h -1.86604 l 0.50333,-1.256767 c 0.27676,-0.691224 0.70352,-1.727438 0.94826,-2.302721 z" />
        <path
           id="path13231"
           style="fill:#034b49;fill-opacity:1;stroke:none;stroke-width:0.264583;stroke-opacity:1"
           d="m 109.51394,93.444646 c -0.71956,-0.0026 -1.54867,0.03101 -2.50528,0.09353 -2.48696,0.162586 -3.05445,0.276622 -3.12125,0.626321 -0.056,0.293185 0.17146,0.477997 0.7245,0.588593 l 0.80667,0.161237 v 4.364593 4.36406 l -0.79375,0.58706 c -1.28165,0.94755 -1.03247,1.24659 1.12448,1.34927 4.36958,0.20799 4.70771,0.18957 6.05803,-0.32351 2.5713,-0.977 3.65242,-2.7414 2.7497,-4.48706 -0.23822,-0.46067 -0.77157,-1.043309 -1.18546,-1.295008 l -0.75292,-0.457861 0.74207,-0.741548 c 0.95879,-0.95877 1.15458,-1.799325 0.68213,-2.930048 -0.56583,-1.354217 -1.70603,-1.892618 -4.52892,-1.899629 z m -0.33383,1.249547 c 0.0286,1.06e-4 0.0574,0 0.0858,0.0026 0.0284,0.0026 0.0566,0.0034 0.0847,0.0061 0.0282,0.0026 0.0563,0.0058 0.0842,0.0098 0.028,0.004 0.056,0.0085 0.0837,0.01349 0.0277,0.005 0.0553,0.01085 0.0827,0.01693 0.0274,0.0064 0.0545,0.01323 0.0816,0.02064 0.0271,0.0074 0.0543,0.01535 0.0811,0.02381 0.0268,0.0085 0.0531,0.01773 0.0796,0.02738 0.0264,0.0095 0.053,0.01931 0.0791,0.02998 0.0261,0.01058 0.0518,0.02196 0.0775,0.0336 0.0257,0.01164 0.0512,0.02408 0.0765,0.03667 0.0253,0.0127 0.0501,0.02566 0.0749,0.03929 0.0248,0.01349 0.0496,0.02783 0.0739,0.04236 0.0243,0.01455 0.0485,0.02953 0.0724,0.04498 0.0239,0.01535 0.0474,0.03122 0.0708,0.04754 0.0233,0.01614 0.0464,0.03297 0.0692,0.05011 0.0228,0.0172 0.0454,0.03474 0.0677,0.05271 0.0222,0.01799 0.0439,0.03654 0.0656,0.0553 0.0217,0.01879 0.043,0.03786 0.0641,0.05736 0.0211,0.01958 0.0421,0.03919 0.0625,0.05943 0.0205,0.02011 0.0407,0.04109 0.0605,0.06202 0.0198,0.0209 0.0393,0.04196 0.0584,0.06355 0.0191,0.0217 0.0379,0.04342 0.0563,0.06564 0.0184,0.02222 0.0365,0.04485 0.0543,0.06768 0.0177,0.02275 0.0347,0.04585 0.0517,0.06924 0.017,0.02328 0.0339,0.04739 0.0501,0.07133 0.0162,0.02408 0.0316,0.04786 0.047,0.07234 0.0154,0.02434 0.0309,0.04945 0.0455,0.07443 0.0146,0.02487 0.0286,0.05003 0.0424,0.07543 0.0138,0.0254 0.0274,0.05117 0.0403,0.07699 0.0129,0.02593 0.0252,0.05181 0.0372,0.07805 0.012,0.02619 0.0235,0.05244 0.0346,0.07906 0.0111,0.02659 0.0218,0.05366 0.032,0.08062 0.0102,0.02693 0.0202,0.05387 0.0295,0.08112 0.009,0.02725 0.018,0.05464 0.0264,0.08218 0.008,0.02752 0.016,0.0554 0.0233,0.08319 0.007,0.02778 0.0144,0.05572 0.0207,0.08371 0.006,0.02802 0.0118,0.05604 0.0171,0.08424 0.005,0.02818 0.0103,0.05638 0.0145,0.08475 0.004,0.02836 0.008,0.05678 0.0109,0.08527 0.003,0.02847 0.006,0.05718 0.008,0.08578 0.002,0.02858 0.003,0.05712 0.004,0.08578 7.9e-4,0.02865 7.9e-4,0.05707 5.3e-4,0.08578 -2.7e-4,0.02871 -0.001,0.0576 -0.003,0.08631 -0.002,0.02871 -0.004,0.0576 -0.006,0.08631 -0.003,0.02868 -0.006,0.05712 -0.01,0.08578 -0.004,0.02865 -0.008,0.0572 -0.0134,0.08578 -0.005,0.02858 -0.0112,0.05731 -0.0176,0.08578 -0.006,0.02847 -0.0135,0.05694 -0.0212,0.08528 -0.008,0.02834 -0.0158,0.05657 -0.0248,0.08475 -0.009,0.02818 -0.0186,0.05625 -0.0289,0.08424 -0.0104,0.02797 -0.0213,0.05596 -0.0331,0.08371 -0.0117,0.02773 -0.0246,0.05517 -0.0377,0.08268 -0.0131,0.02749 -0.0268,0.05495 -0.0413,0.08215 -0.0145,0.02723 -0.0295,0.05424 -0.0455,0.08112 -0.016,0.02691 -0.0327,0.05355 -0.0501,0.08012 -0.0228,0.03485 -0.0454,0.06784 -0.0677,0.09922 -0.0223,0.03138 -0.0444,0.0613 -0.0667,0.0894 -0.0223,0.02807 -0.0445,0.05461 -0.0672,0.07959 -0.0227,0.02487 -0.0462,0.04826 -0.0698,0.07027 -0.0236,0.02196 -0.0475,0.04278 -0.0724,0.06202 -0.0124,0.0095 -0.0249,0.01852 -0.0377,0.02738 -0.0129,0.009 -0.0259,0.01799 -0.0393,0.02646 -0.0133,0.0082 -0.027,0.01614 -0.0408,0.02381 -0.0139,0.0077 -0.0279,0.01508 -0.0424,0.02223 -0.0144,0.0071 -0.0293,0.01376 -0.0444,0.02011 -0.0151,0.0066 -0.0307,0.01323 -0.0465,0.01905 -0.0316,0.01191 -0.0645,0.02275 -0.0992,0.03257 -0.0347,0.0098 -0.0712,0.01852 -0.10956,0.02646 -0.0383,0.0079 -0.0785,0.01508 -0.12092,0.02117 -0.0424,0.0061 -0.0869,0.01138 -0.13384,0.01614 -0.0469,0.0045 -0.0959,0.0082 -0.1478,0.01138 -0.0519,0.0032 -0.10653,0.0058 -0.16381,0.0077 -0.0573,0.0026 -0.11718,0.0032 -0.18035,0.0042 -0.0632,0 -0.12946,0.0026 -0.19896,0.0026 h -1.31671 v -1.955959 c 0,-0.09623 2.6e-4,-0.188568 0.001,-0.276463 7.9e-4,-0.08792 0.002,-0.171714 0.003,-0.251671 0.002,-0.07996 0.004,-0.156025 0.006,-0.228415 0.002,-0.07239 0.005,-0.140997 0.008,-0.20619 0.003,-0.06517 0.007,-0.12663 0.0119,-0.184997 0.004,-0.05837 0.009,-0.113453 0.015,-0.165364 0.006,-0.05191 0.0114,-0.100939 0.0181,-0.146765 0.007,-0.04583 0.0138,-0.08856 0.0217,-0.128666 0.008,-0.04011 0.0166,-0.07737 0.0258,-0.112131 0.009,-0.03479 0.0193,-0.06683 0.03,-0.09665 0.005,-0.01482 0.0109,-0.02966 0.0165,-0.04339 0.006,-0.01376 0.0115,-0.02667 0.0176,-0.03929 0.006,-0.0127 0.0122,-0.02461 0.0186,-0.03617 0.006,-0.01164 0.0133,-0.02249 0.0202,-0.03307 0.007,-0.01058 0.0139,-0.02037 0.0212,-0.02998 0.007,-0.0095 0.0146,-0.01879 0.0222,-0.02738 0.008,-0.0087 0.0157,-0.01667 0.0238,-0.02434 0.008,-0.0077 0.0163,-0.01482 0.0248,-0.0217 0.008,-0.0069 0.0169,-0.01349 0.0258,-0.01958 0.009,-0.0061 0.018,-0.01164 0.0274,-0.01693 0.009,-0.0053 0.0191,-0.01032 0.0289,-0.01508 0.01,-0.0045 0.0197,-0.0085 0.03,-0.01243 0.0293,-0.01138 0.0586,-0.0217 0.0879,-0.03151 0.0293,-0.0098 0.0586,-0.01879 0.0878,-0.02688 0.0293,-0.0082 0.0587,-0.01587 0.0879,-0.02275 0.0292,-0.0069 0.0582,-0.0127 0.0873,-0.01799 0.0291,-0.0053 0.0583,-0.0095 0.0873,-0.01349 0.029,-0.004 0.0579,-0.0071 0.0868,-0.0098 0.0289,-0.0026 0.058,-0.0045 0.0868,-0.0056 0.0288,0 0.0572,-0.0026 0.0858,-0.0026 z m -1.1157,5.18676 1.38907,0.161237 c 1.04072,0.1207 1.53783,0.33277 1.98386,0.84542 0.73314,0.84265 0.78813,2.25013 0.11161,2.86234 -0.48506,0.439 -2.93702,0.63331 -3.30832,0.26202 -0.097,-0.097 -0.17622,-1.06645 -0.17622,-2.15389 z" />
        <path
           id="path13179"
           style="fill:#034b49;fill-opacity:1;stroke:none;stroke-width:0.264583;stroke-opacity:1"
           d="m 96.496645,93.344395 c -0.91966,-0.0026 -1.871064,0.204444 -2.787943,0.638201 -2.526332,1.19515 -4.41039,3.604155 -4.424022,5.656501 -0.01577,2.374213 1.225122,4.596743 3.12746,5.601733 0.652365,0.34465 1.516224,0.51496 2.650482,0.52297 1.398551,0.01 1.950368,-0.13073 3.26802,-0.83304 1.708808,-0.91077 3.141478,-2.51555 3.666438,-4.1062 0.41299,-1.251371 0.14921,-3.284455 -0.60306,-4.645208 -1.00508,-1.818031 -2.874125,-2.830724 -4.897375,-2.834957 z m -1.027329,1.676373 c 0.449368,-0.0026 0.917988,0.1093 1.387512,0.342636 1.302962,0.647515 1.883029,1.50286 2.21692,3.26853 0.38803,2.052006 -0.04161,3.713026 -1.230416,4.756816 -1.874951,1.64621 -4.431199,0.58827 -5.25136,-2.17353 -0.474244,-1.596946 -0.4933,-2.114603 -0.126606,-3.434927 0.483608,-1.741302 1.655847,-2.755212 3.00395,-2.759525 z" />
        <path
           style="fill:#034b49;fill-opacity:1;stroke:none;stroke-width:0.264583;stroke-opacity:1"
           d="m 79.755633,105.35412 c -2.629631,-1.14035 -3.996545,-4.3854 -3.048979,-7.23825 0.498573,-1.50106 2.419064,-3.45808 4.176352,-4.25579 1.270799,-0.57687 3.341111,-0.6677 5.103575,-0.22391 l 1.175496,0.296 v 1.68838 c 0,1.60211 -0.03219,1.68838 -0.630055,1.68838 -0.406286,0 -0.875094,-0.32126 -1.319996,-0.90456 -1.201055,-1.57466 -3.445978,-1.86909 -4.598241,-0.60307 -0.901102,0.99006 -1.177541,1.77884 -1.177541,3.35993 0,4.07303 2.517661,5.76519 6.097883,4.09851 1.411523,-0.6571 1.892533,-0.6638 1.892533,-0.0264 0,0.3474 -1.540581,1.691 -2.562294,2.23469 -0.817954,0.43525 -4.006262,0.36414 -5.108733,-0.11395 z"
           id="path13177" />
      </g>
      <g
         id="g35108">
        <g
           id="g506">
          <path
             id="path312"
             style="fill:#000000;fill-opacity:1;stroke-width:7.55905522;stroke-miterlimit:4;stroke-dasharray:none;stroke:#000000;stroke-opacity:1"
             d="M 125.5,0 V 2 H 248 v 37.5 c 0,32.666683 0.1933,37.5 1.5,37.5 1.30723,0 1.5,-4.944447 1.5,-38.5 V 0 Z"
             transform="matrix(0.26458333,0,0,0.26458333,76.31416,71.11518)" />
        </g>
        <path
           id="path314"
           style="fill:#b3b3b3;fill-opacity:1;stroke-width:2;stroke:#b3b3b3;stroke-opacity:1;stroke-miterlimit:4;stroke-dasharray:none"
           d="m 76.31416,71.11518 v 10.186458 c 0,8.87824 0.05097,10.186458 0.396875,10.186458 0.345725,0 0.396875,-1.278815 0.396875,-9.921874 v -9.921875 h 32.41146 V 71.11518 Z" />
      </g>
      <path
         style="fill:#000000;fill-opacity:1;stroke-width:0.264583"
         d="m 76.31416,127.60372 c 0,-8.87824 0.05097,-10.18646 0.396875,-10.18646 0.345723,0 0.396875,1.27882 0.396875,9.92188 v 9.92187 h 32.41146 32.41145 v -9.92187 c 0,-8.64306 0.0511,-9.92188 0.39688,-9.92188 0.3459,0 0.39687,1.30822 0.39687,10.18646 v 10.18646 h -33.2052 -33.20521 z"
         id="path131" />
      <path
         d="m 93.725963,112.46548 v 3.49332 h -0.950844 v -3.46231 q 0,-0.82166 -0.32039,-1.2299 -0.32039,-0.40824 -0.96118,-0.40824 -0.76998,0 -1.21439,0.49092 -0.44442,0.49093 -0.44442,1.33842 v 3.27111 h -0.95601 v -8.04083 h 0.95601 v 3.15225 q 0.34107,-0.52193 0.80098,-0.78031 0.46509,-0.25838 1.0697,-0.25838 0.99736,0 1.50895,0.62011 0.511594,0.61495 0.511594,1.81384 z"
         id="path57874"
         style="font-size:10.5833px;line-height:1.25;fill:#000080;fill-opacity:1;stroke-width:0.264583" />
      <path
         d="m 101.89919,110.68782 q -0.76481,0 -1.20923,0.59944 -0.44441,0.59428 -0.44441,1.63297 0,1.0387 0.43924,1.63814 0.44442,0.59428 1.2144,0.59428 0.75964,0 1.20405,-0.59945 0.44442,-0.59944 0.44442,-1.63297 0,-1.02836 -0.44442,-1.6278 -0.44441,-0.60461 -1.20405,-0.60461 z m 0,-0.80615 q 1.24023,0 1.94819,0.80615 0.70797,0.80615 0.70797,2.23241 0,1.4211 -0.70797,2.23242 -0.70796,0.80615 -1.94819,0.80615 -1.2454,0 -1.953367,-0.80615 -0.70279,-0.81132 -0.70279,-2.23242 0,-1.42626 0.70279,-2.23241 0.707967,-0.80615 1.953367,-0.80615 z"
         id="path57876"
         style="font-size:10.5833px;line-height:1.25;fill:#000080;fill-opacity:1;stroke-width:0.264583" />
      <path
         d="m 111.50495,108.52775 v 1.6433 h 1.95853 v 0.73897 h -1.95853 v 3.14192 q 0,0.70797 0.1912,0.9095 0.19637,0.20154 0.79064,0.20154 h 0.97669 v 0.79582 h -0.97669 q -1.1007,0 -1.51928,-0.40825 -0.41858,-0.41341 -0.41858,-1.49861 v -3.14192 h -0.69763 v -0.73897 h 0.69763 v -1.6433 z"
         id="path57878"
         style="font-size:10.5833px;line-height:1.25;fill:#000080;fill-opacity:1;stroke-width:0.264583" />
      <path
         d="m 123.85223,112.67735 v 0.46509 h -4.37181 q 0.062,0.98185 0.58911,1.49861 0.53227,0.5116 1.47794,0.5116 0.54777,0 1.05936,-0.13436 0.51677,-0.13436 1.02319,-0.40308 v 0.89917 q -0.51159,0.21704 -1.04902,0.33073 -0.53744,0.11369 -1.09037,0.11369 -1.38493,0 -2.19624,-0.80615 -0.80615,-0.80615 -0.80615,-2.18074 0,-1.4211 0.7648,-2.25309 0.76998,-0.83715 2.07222,-0.83715 1.16789,0 1.84485,0.75447 0.68212,0.74931 0.68212,2.04121 z m -0.95084,-0.27905 q -0.0103,-0.78031 -0.43925,-1.2454 -0.42374,-0.46508 -1.12654,-0.46508 -0.79582,0 -1.27641,0.44958 -0.47542,0.44958 -0.54776,1.26607 z"
         id="path57880"
         style="font-size:10.5833px;line-height:1.25;fill:#000080;fill-opacity:1;stroke-width:0.264583" />
      <path
         d="m 129.3192,107.91797 h 0.95085 v 8.04083 h -0.95085 z"
         id="path57882"
         style="font-size:10.5833px;line-height:1.25;fill:#000080;fill-opacity:1;stroke-width:0.264583" />
      <g
         id="g519"
         transform="rotate(180,109.51937,104.45268)">
        <g
           id="g515">
          <path
             id="path513"
             style="fill:#000000;fill-opacity:1;stroke-width:0.999999"
             d="M 125.5,0 V 2 H 248 v 37.5 c 0,32.666683 0.1933,37.5 1.5,37.5 1.30723,0 1.5,-4.944447 1.5,-38.5 V 0 Z"
             transform="matrix(0.26458333,0,0,0.26458333,76.31416,71.11518)" />
        </g>
        <path
           id="path517"
           style="fill:#b3b3b3;fill-opacity:1;stroke-width:0.999999"
           d="M 0,0 V 38.5 C 0,72.055553 0.19264252,77 1.5,77 2.8066772,77 3,72.166683 3,39.5 V 2 H 125.5 V 0 Z"
           transform="matrix(0.26458333,0,0,0.26458333,76.31416,71.11518)" />
      </g>
      <g
         id="g35116"
         transform="rotate(180,109.51937,104.1881)">
        <g
           id="g35112">
          <path
             id="path35110"
             style="fill:#000000;fill-opacity:1;stroke:#000000;stroke-width:7.55906;stroke-miterlimit:4;stroke-dasharray:none;stroke-opacity:1"
             d="M 125.5,0 V 2 H 248 v 37.5 c 0,32.666683 0.1933,37.5 1.5,37.5 1.30723,0 1.5,-4.944447 1.5,-38.5 V 0 Z"
             transform="matrix(0.26458333,0,0,0.26458333,76.31416,71.11518)" />
        </g>
        <path
           id="path35114"
           style="fill:#b3b3b3;fill-opacity:1;stroke:#b3b3b3;stroke-width:2;stroke-miterlimit:4;stroke-dasharray:none;stroke-opacity:1"
           d="m 76.31416,71.11518 v 10.186458 c 0,8.87824 0.05097,10.186458 0.396875,10.186458 0.345725,0 0.396875,-1.278815 0.396875,-9.921874 v -9.921875 h 32.41146 V 71.11518 Z" />
      </g>
    </g>
  </g>
</svg>
